PathFileType	4	(X/Y/Z)	C:\Users\Biomechanik\SynologyDrive\AlexP\Athlete_03\Athlete_3_25_03_31\Squat_bar_02\marker_experimental.trc
DataRate	CameraRate	NumFrames	NumMarkers	Units	OrigDataRate	OrigDataStartFrame	OrigNumFrames
200.000000	200.000000	4	55	mm	200.000000	261	522
Frame#	Time	BL			BR			GLAB			RFHD			LFHD			C7			T6			SPINMOL			SPINM2			SPINM3			T12			BELTOL			BELT2			BELT3			SACROL			SACR2			SACR3			LTHOL			LTH2			LTH3			LSHAOL			LSHA2			LSHA3			LHEE			LTOE			LM5			RTHOL			RTH2			RTH3			RSHAOL			RSHA2			RSHA3			RHEE			RTOE			RM5			STRN			XIPH			LACR			LUAOL			LUA2			LUA3			LLAOL			LLA2			LLA3			LWRR			LWRU			RACR			RUAOL			RUA2			RUA3			RLAOL			RLA2			RLA3			RWRR			RWRU			
		X1	Y1	Z1	X2	Y2	Z2	X3	Y3	Z3	X4	Y4	Z4	X5	Y5	Z5	X6	Y6	Z6	X7	Y7	Z7	X8	Y8	Z8	X9	Y9	Z9	X10	Y10	Z10	X11	Y11	Z11	X12	Y12	Z12	X13	Y13	Z13	X14	Y14	Z14	X15	Y15	Z15	X16	Y16	Z16	X17	Y17	Z17	X18	Y18	Z18	X19	Y19	Z19	X20	Y20	Z20	X21	Y21	Z21	X22	Y22	Z22	X23	Y23	Z23	X24	Y24	Z24	X25	Y25	Z25	X26	Y26	Z26	X27	Y27	Z27	X28	Y28	Z28	X29	Y29	Z29	X30	Y30	Z30	X31	Y31	Z31	X32	Y32	Z32	X33	Y33	Z33	X34	Y34	Z34	X35	Y35	Z35	X36	Y36	Z36	X37	Y37	Z37	X38	Y38	Z38	X39	Y39	Z39	X40	Y40	Z40	X41	Y41	Z41	X42	Y42	Z42	X43	Y43	Z43	X44	Y44	Z44	X45	Y45	Z45	X46	Y46	Z46	X47	Y47	Z47	X48	Y48	Z48	X49	Y49	Z49	X50	Y50	Z50	X51	Y51	Z51	X52	Y52	Z52	X53	Y53	Z53	X54	Y54	Z54	X55	Y55	Z55	

262	1.305	244.8745727539062	784.5547485351564	-2239.31396484375	258.4920654296875	834.2100219726562	-218.8648071289062	545.6495971679688	974.0678100585939	-1191.145629882812	494.0518493652344	999.5332641601564	-1128.997802734375	504.1092224121094	997.8716430664064	-1265.205444335938	305.5154724121094	868.4414672851564	-1198.935302734375	179.5181579589844	760.5493774414064	-1207.34033203125	158.3313751220703	739.9381713867189	-1228.463989257812	148.3521881103516	733.8235473632814	-1179.559692382812	118.453369140625	688.2803344726564	-1217.090209960938	90.30837249755859	646.4734497070314	-1217.128295898438	55.05733871459961	639.6580200195314	-1232.573486328125	53.81375885009766	635.4561767578126	-1181.948974609375	16.48983764648438	589.0343017578126	-1213.257934570312	-43.96461868286133	462.5374755859376	-1239.183349609375	-42.51229095458984	460.1817626953126	-1187.861083984375	-50.6639289855957	400.6032104492188	-1215.503051757812	158.8419036865234	366.7353820800782	-1510.068481445312	208.9951324462891	315.0764770507814	-1540.473754882812	209.8956909179688	364.7695312500001	-1543.843994140625	252.1765441894531	288.9414367675782	-1618.501953125	190.2019195556641	254.0968170166016	-1582.071655273438	230.8417510986328	233.1125793457032	-1603.180541992188	114.5576782226562	72.30809783935555	-1463.775512695312	318.1783447265625	48.36428833007822	-1535.300659179688	239.7640686035156	26.95675468444834	-1618.351318359375	139.975830078125	352.1939697265626	-912.5821533203125	177.8634948730469	413.3580017089844	-876.9134521484375	189.2213439941406	364.8965454101563	-876.225830078125	227.7012023925781	301.6945495605469	-800.5433349609375	225.1620483398438	222.8507537841797	-802.206298828125	195.7847747802734	254.8749084472657	-826.4544677734375	96.43583679199219	67.28314971923834	-969.984130859375	282.0393981933594	45.29328155517584	-874.0697631835938	193.4772644042969	39.68444824218755	-801.2473754882812	416.7471008300781	704.5920410156251	-1205.159423828125	372.6283569335938	566.1871337890626	-1200.88525390625	344.0795593261719	814.8891601562501	-1372.49267578125	219.3645477294922	712.8755493164064	-1465.955322265625	165.30078125	676.8279418945314	-1455.0146484375	194.9994812011719	658.4728393554689	-1492.230346679688	161.6772613525391	592.1660156250001	-1560.767456054688	233.7536163330078	580.6001586914064	-1592.44775390625	209.1727294921875	623.7657470703126	-1584.760498046875	273.8948364257812	698.2687377929689	-1621.759643554688	284.8171081542969	726.2495117187501	-1548.701782226562	354.1820068359375	808.9113159179689	-1039.543579101562	231.5404510498047	711.0545043945314	-951.3173217773438	200.9720611572266	660.106201171875	-922.2225341796875	180.6200714111328	673.0242309570314	-968.8543090820312	193.0123596191406	592.5637817382812	-837.254150390625	200.5768585205078	671.6041259765625	-827.531494140625	234.5487823486328	634.6008911132812	-818.5194091796875	274.4754333496094	719.0237426757812	-802.8025512695312	297.0498352050781	747.915771484375	-874.0844116210938	
263	1.31	245.0652160644531	782.7957763671876	-2239.498046875	258.4747314453125	832.367919921875	-219.0425262451171	545.5228271484375	972.3499755859376	-1191.240600585938	493.8990478515625	997.7833862304689	-1129.09228515625	503.9934387207031	996.1557006835939	-1265.317016601562	305.4868469238281	866.6624145507814	-1199.107788085938	179.5081329345703	758.8099365234376	-1207.526489257812	158.3390045166016	738.1961669921876	-1228.66845703125	148.3397064208984	732.0888671875001	-1179.765502929688	118.4390335083008	686.5700683593751	-1217.296508789062	90.19146728515625	644.8427734375001	-1217.3447265625	54.92628479003906	638.0125122070314	-1232.793823242188	53.692138671875	633.8068847656251	-1182.163208007812	16.42329025268555	587.3463745117189	-1213.480346679688	-43.89662170410156	460.5171508789063	-1239.387939453125	-42.44329833984375	458.1952514648438	-1188.078369140625	-50.45442199707031	398.5860290527344	-1215.682983398438	159.1942749023438	365.6706542968751	-1510.125244140625	209.4968414306641	314.2658996582032	-1540.7451171875	210.2220306396484	363.9841918945314	-1543.93505859375	252.4583740234375	288.8363342285157	-1618.454345703125	190.4449615478516	254.048309326172	-1582.039672851562	231.0682220458984	233.014633178711	-1603.130859375	114.601806640625	72.29225921630868	-1463.709350585938	318.2030639648438	48.33806228637705	-1535.249389648438	239.7656402587891	26.99178123474131	-1618.325073242188	140.2272644042969	351.1559143066407	-912.6959228515625	177.8597564697266	412.5799255371094	-877.1983032226562	189.3755798339844	364.1549377441407	-876.3090209960938	227.8288269042969	301.6531677246094	-800.6673583984375	225.3254241943359	222.8096923828126	-802.3336791992188	195.94921875	254.8237457275391	-826.5968627929688	96.50042724609375	67.27075958251959	-970.0765380859375	282.04296875	45.2616920471192	-874.144287109375	193.5187530517578	39.7330932617188	-801.3031616210938	416.7983093261719	702.7957153320314	-1205.325561523438	372.670166015625	564.3843383789064	-1201.054565429688	344.1744079589844	813.0863647460939	-1372.688720703125	219.4311218261719	711.1387329101564	-1466.17431640625	165.3289794921875	675.1334228515626	-1455.240844726562	194.9799499511719	656.7567749023439	-1492.463745117188	161.6641540527344	590.4514770507814	-1560.96044921875	233.7422180175781	578.8199462890626	-1592.623901367188	209.1501770019531	621.9996948242189	-1584.943603515625	273.9551086425781	696.4782714843751	-1621.928833007812	284.8802490234375	724.4521484375001	-1548.875732421875	354.2488403320312	807.0632934570314	-1039.673828125	231.5957489013672	709.2517700195314	-951.4282836914062	200.9916839599609	658.3170166015625	-922.337646484375	180.6342010498047	671.2735595703126	-968.9600219726562	192.9630432128906	590.7767944335938	-837.4248046875	200.5638427734375	669.8157958984375	-827.6959228515625	234.5106658935547	632.7940063476562	-818.6788940429688	274.4723510742188	717.2028198242188	-802.953857421875	297.0562744140625	746.08642578125	-874.2330322265625	
264	1.315	245.2494964599609	781.0827636718751	-2239.682861328125	258.4529113769531	830.5473022460938	-219.2216796874999	545.391845703125	970.6677246093751	-1191.326538085938	493.7381286621094	996.0675048828126	-1129.181274414062	503.8747863769531	994.4751586914064	-1265.419555664062	305.4539184570312	864.9171142578126	-1199.28515625	179.4935150146484	757.1059570312501	-1207.715576171875	158.3440704345703	736.4894409179689	-1228.872680664062	148.3272399902344	730.3899536132814	-1179.972045898438	118.4193878173828	684.8972778320314	-1217.500732421875	90.06893157958984	643.2454833984376	-1217.56201171875	54.78942489624023	636.3971557617189	-1233.015747070312	53.56260681152344	632.1886596679689	-1182.379516601562	16.35073661804199	585.6897583007814	-1213.7041015625	-43.8315544128418	458.5388183593751	-1239.592529296875	-42.37738037109375	456.2514343261719	-1188.29638671875	-50.25253677368164	396.6139831542969	-1215.86328125	159.5441131591797	364.6243286132814	-1510.177612304688	210.0052642822266	313.4637451171876	-1540.99951171875	210.5461578369141	363.213348388672	-1544.018920898438	252.7393188476562	288.7319335937501	-1618.3994140625	190.6887359619141	253.9998779296876	-1582.002075195312	231.2965850830078	232.9162597656251	-1603.075805664062	114.6457672119141	72.2759552001954	-1463.640747070312	318.2283020019531	48.31026077270517	-1535.196411132812	239.7675323486328	27.02768325805674	-1618.298217773438	140.4754638671875	350.1499328613282	-912.8132934570312	177.8596801757812	411.8237915039063	-877.4872436523438	189.5264587402344	363.4347839355469	-876.3984375	227.9532775878906	301.6181030273438	-800.7994384765625	225.4853363037109	222.7745971679688	-802.4649047851562	196.1105499267578	254.7776184082032	-826.7451782226562	96.56259155273438	67.2585067749024	-970.1668701171875	282.0467224121094	45.2317848205567	-874.2138671875	193.5588531494141	39.78114700317388	-801.3571166992188	416.8456726074219	701.0357055664064	-1205.49462890625	372.7021484375	562.6079101562501	-1201.22900390625	344.2655029296875	811.3186645507814	-1372.887084960938	219.4927978515625	709.4357299804689	-1466.396484375	165.3550720214844	673.4698486328126	-1455.469970703125	194.9596710205078	655.0742797851564	-1492.701416015625	161.6499481201172	588.7719726562501	-1561.156127929688	233.7327270507812	577.0742187500001	-1592.8037109375	209.1257781982422	620.2683715820314	-1585.129516601562	274.0116882324219	694.7257080078126	-1622.098876953125	284.9384765625	722.6918334960939	-1549.049560546875	354.3128356933594	805.2492675781251	-1039.805541992188	231.6493835449219	707.4807739257814	-951.54052734375	201.0072631835938	656.558837890625	-922.4567260742188	180.6463317871094	669.5571289062501	-969.0693359375	192.9092712402344	589.0188598632812	-837.6033325195312	200.5463714599609	668.0560302734375	-827.8670043945312	234.4677886962891	631.0158081054688	-818.8456420898438	274.4661560058594	715.4093627929688	-803.1089477539062	297.0635375976562	744.2857055664062	-874.3857421875	
265	1.32	245.4267272949219	779.4177856445314	-2239.868408203125	258.4264831542969	828.7501220703125	-219.4017486572265	545.2570190429688	969.0235595703126	-1191.403198242188	493.5690612792969	994.3879394531251	-1129.265258789062	503.75341796875	992.8320922851564	-1265.513549804688	305.4169006347656	863.2070922851564	-1199.466918945312	179.474609375	755.4396362304689	-1207.907104492188	158.3468322753906	734.8200073242189	-1229.076171875	148.3146820068359	728.7285766601564	-1180.1796875	118.3938674926758	683.2638549804689	-1217.702514648438	89.94049072265625	641.6832885742189	-1217.77978515625	54.64676666259766	634.8139648437501	-1233.23876953125	53.42535018920898	630.6030883789064	-1182.5966796875	16.272216796875	584.0659179687501	-1213.929077148438	-43.76960372924805	456.6041870117188	-1239.796752929688	-42.31490325927734	454.3519592285157	-1188.5146484375	-50.05746841430664	394.6878051757813	-1216.043212890625	159.8908081054688	363.5968322753907	-1510.2255859375	210.5184936523438	312.670379638672	-1541.237426757812	210.8678131103516	362.4573059082032	-1544.096069335938	253.0193176269531	288.6277160644532	-1618.33837890625	190.9331359863281	253.9513702392579	-1581.958862304688	231.5262603759766	232.8174133300782	-1603.015747070312	114.6896896362305	72.25910186767587	-1463.56982421875	318.2540588378906	48.28093338012705	-1535.141723632812	239.7700347900391	27.06431770324717	-1618.270263671875	140.7198028564453	349.1774291992188	-912.9337158203125	177.8634796142578	411.0911865234376	-877.7794189453125	189.6739196777344	362.7376403808594	-876.4932250976562	228.0741729736328	301.5893859863282	-800.9382934570312	225.6410827636719	222.7456054687501	-802.5991821289062	196.2680969238281	254.7366790771485	-826.898193359375	96.62251281738281	67.24625396728521	-970.2546997070312	282.0508117675781	45.20378112792974	-874.2781982421875	193.5974426269531	39.82839965820317	-801.4091186523438	416.8896179199219	699.3144531250001	-1205.666381835938	372.7242431640625	560.8596191406251	-1201.407470703125	344.352783203125	809.5876464843751	-1373.086791992188	219.5500793457031	707.7675781250001	-1466.621826171875	165.3799896240234	671.8382568359376	-1455.702270507812	194.9412536621094	653.4262084960939	-1492.942504882812	161.6352996826172	587.1283569335939	-1561.355102539062	233.7260131835938	575.3652343750001	-1592.9873046875	209.1021575927734	618.5737304687501	-1585.318725585938	274.0647583007812	693.0131225585939	-1622.26953125	284.9923706054688	720.9708862304689	-1549.223266601562	354.3738708496094	803.4722290039064	-1039.940063476562	231.701416015625	705.7440185546876	-951.6539306640625	201.0182800292969	654.8344116210938	-922.5797729492188	180.6568603515625	667.8771362304689	-969.1824951171875	192.8515930175781	587.2918701171875	-837.7898559570312	200.5249176025391	666.3263549804688	-828.0445556640625	234.4205474853516	629.2681274414062	-819.0198364257812	274.4574584960938	713.6453857421875	-803.2681274414062	297.0707092285156	742.5164794921875	-874.5426635742188	
